<?xml version="1.0" encoding="UTF-8"?>
<svg version="1.1" xmlns="http://www.w3.org/2000/svg" width="691" height="512">
<path d="M0 0 C228.03 0 456.06 0 691 0 C691 168.96 691 337.92 691 512 C462.97 512 234.94 512 0 512 C0 343.04 0 174.08 0 0 Z " fill="#161717" transform="translate(0,0)"/>
<path d="M0 0 C2.11204146 0.76940053 4.17865155 1.36562479 6.3684082 1.86279297 C6.3684082 2.52279297 6.3684082 3.18279297 6.3684082 3.86279297 C7.19598633 3.95044922 8.02356445 4.03810547 8.8762207 4.12841797 C13.0875831 5.01402885 16.44537686 6.64212904 20.2434082 8.61279297 C20.95231201 8.97332764 21.66121582 9.3338623 22.39160156 9.70532227 C26.6291038 11.88479027 30.70448061 14.20753669 34.68481445 16.83154297 C37.44578817 18.52271944 40.36239159 19.67291139 43.3684082 20.86279297 C43.3684082 21.52279297 43.3684082 22.18279297 43.3684082 22.86279297 C44.05290039 23.09998047 44.73739258 23.33716797 45.44262695 23.58154297 C48.97374849 25.1278819 52.03395803 27.16659363 55.1809082 29.36279297 C56.07712891 29.96800781 56.07712891 29.96800781 56.99145508 30.58544922 C58.48984431 31.62319079 59.93456434 32.73755093 61.3684082 33.86279297 C61.3684082 34.52279297 61.3684082 35.18279297 61.3684082 35.86279297 C61.8840332 36.08966797 62.3996582 36.31654297 62.9309082 36.55029297 C66.26387825 38.34496915 69.51544492 40.36244312 72.3684082 42.86279297 C72.3684082 43.52279297 72.3684082 44.18279297 72.3684082 44.86279297 C73.19018555 45.19537109 73.19018555 45.19537109 74.02856445 45.53466797 C77.09159444 47.27328265 79.37105216 49.61045246 81.8059082 52.11279297 C82.29164307 52.60642334 82.77737793 53.10005371 83.27783203 53.60864258 C92.3684082 62.91657215 92.3684082 62.91657215 92.3684082 65.86279297 C92.96137695 66.11029297 93.5543457 66.35779297 94.1652832 66.61279297 C96.7027344 68.05248159 97.90884922 69.5143079 99.6184082 71.86279297 C100.13918945 72.56404297 100.6599707 73.26529297 101.1965332 73.98779297 C102.3684082 75.86279297 102.3684082 75.86279297 102.3684082 77.86279297 C103.0284082 77.86279297 103.6884082 77.86279297 104.3684082 77.86279297 C105.84106445 79.69091797 105.84106445 79.69091797 107.4309082 82.11279297 C107.95813477 82.90169922 108.48536133 83.69060547 109.02856445 84.50341797 C110.26271584 86.67667581 110.91513876 88.42297225 111.3684082 90.86279297 C112.0284082 90.86279297 112.6884082 90.86279297 113.3684082 90.86279297 C116.21297608 95.74850116 118.82295675 100.38346508 120.3684082 105.86279297 C121.0284082 105.86279297 121.6884082 105.86279297 122.3684082 105.86279297 C126.73431853 114.21312632 130.74582162 122.29832108 133.5090332 131.33935547 C134.45237829 134.10935967 135.83576467 136.43682786 137.3684082 138.92138672 C141.53478421 147.01001513 143.1836233 156.75354938 145.4387207 165.55029297 C146.2828293 168.79485308 146.2828293 168.79485308 147.4543457 171.53857422 C148.35214654 173.82144386 148.68589451 175.61829798 148.8684082 178.05029297 C149.14800876 181.18682897 149.61280027 184.17771672 150.2980957 187.24951172 C151.66323484 193.94498845 152.33505096 200.69164356 152.9934082 207.48779297 C153.09196106 208.5012529 153.09196106 208.5012529 153.19250488 209.53518677 C154.92641363 227.68067515 154.86402535 245.70172756 153.3684082 263.86279297 C152.7084082 263.86279297 152.0484082 263.86279297 151.3684082 263.86279297 C151.39161133 264.64783203 151.41481445 265.43287109 151.4387207 266.24169922 C151.5416384 272.23297924 151.24484386 277.12310743 149.3684082 282.86279297 C148.93790584 285.52623066 148.65102206 288.17796132 148.3684082 290.86279297 C147.7084082 290.86279297 147.0484082 290.86279297 146.3684082 290.86279297 C144.79938962 297.84813093 144.79938962 297.84813093 143.3684082 304.86279297 C142.7084082 304.86279297 142.0484082 304.86279297 141.3684082 304.86279297 C141.3684082 306.18279297 141.3684082 307.50279297 141.3684082 308.86279297 C140.7084082 308.86279297 140.0484082 308.86279297 139.3684082 308.86279297 C139.2240332 309.93529297 139.0796582 311.00779297 138.9309082 312.11279297 C138.53091378 314.77942246 138.09248896 317.27679026 137.3684082 319.86279297 C136.7084082 319.86279297 136.0484082 319.86279297 135.3684082 319.86279297 C135.18665039 320.44287109 135.00489258 321.02294922 134.81762695 321.62060547 C133.32659761 326.2542659 131.68507245 330.56041652 129.3684082 334.86279297 C128.7084082 334.86279297 128.0484082 334.86279297 127.3684082 334.86279297 C127.2446582 335.62591797 127.1209082 336.38904297 126.9934082 337.17529297 C126.3684082 339.86279297 126.3684082 339.86279297 124.3684082 342.86279297 C123.7084082 342.86279297 123.0484082 342.86279297 122.3684082 342.86279297 C122.3065332 343.56404297 122.2446582 344.26529297 122.1809082 344.98779297 C121.07811504 348.88998416 119.026248 350.80627721 116.3684082 353.86279297 C116.0384082 354.85279297 115.7084082 355.84279297 115.3684082 356.86279297 C114.7084082 356.86279297 114.0484082 356.86279297 113.3684082 356.86279297 C113.3684082 357.52279297 113.3684082 358.18279297 113.3684082 358.86279297 C112.7084082 358.86279297 112.0484082 358.86279297 111.3684082 358.86279297 C111.3684082 359.52279297 111.3684082 360.18279297 111.3684082 360.86279297 C109.74866261 362.57509545 108.0725136 364.23442559 106.3684082 365.86279297 C103.34771498 368.80399427 100.56564144 371.81594835 97.8684082 375.05029297 C95.28989707 378.04633107 93.32765898 379.9029746 89.3684082 380.86279297 C89.3684082 381.52279297 89.3684082 382.18279297 89.3684082 382.86279297 C88.7084082 382.86279297 88.0484082 382.86279297 87.3684082 382.86279297 C87.3684082 383.52279297 87.3684082 384.18279297 87.3684082 384.86279297 C85.41853256 386.43916302 83.47132054 387.91296536 81.4309082 389.36279297 C77.30487217 392.05972678 77.30487217 392.05972678 74.3684082 395.86279297 C70.77750583 397.55661484 67.27288545 399.08189752 63.3684082 399.86279297 C63.3684082 400.52279297 63.3684082 401.18279297 63.3684082 401.86279297 C58.98379282 404.86279297 58.98379282 404.86279297 56.3684082 404.86279297 C56.3684082 405.52279297 56.3684082 406.18279297 56.3684082 406.86279297 C55.7084082 406.86279297 55.0484082 406.86279297 54.3684082 406.86279297 C54.3684082 407.52279297 54.3684082 408.18279297 54.3684082 408.86279297 C53.78575195 409.00974609 53.2030957 409.15669922 52.6027832 409.30810547 C46.47728934 410.98394813 41.1454785 413.39640887 35.5168457 416.31201172 C30.28607315 418.88845924 24.8570147 420.90767989 19.3684082 422.86279297 C18.76955811 423.089104 18.17070801 423.31541504 17.55371094 423.54858398 C10.55631781 426.06764551 3.3131112 427.49378314 -3.95800781 428.9699707 C-6.16684372 429.41974458 -8.37283992 429.88184031 -10.57885742 430.34521484 C-28.32225789 434.02470642 -45.4756137 435.26386795 -63.5690918 435.23779297 C-64.660112 435.23891083 -65.7511322 435.24002869 -66.87521362 435.24118042 C-118.27906591 435.21531886 -118.27906591 435.21531886 -123.6315918 429.86279297 C-125.95977143 429.49518566 -128.2934303 429.16037716 -130.6315918 428.86279297 C-130.6315918 428.20279297 -130.6315918 427.54279297 -130.6315918 426.86279297 C-131.38182617 426.82541016 -132.13206055 426.78802734 -132.9050293 426.74951172 C-142.72655821 426.11865785 -150.63782881 423.73941494 -159.6315918 419.86279297 C-161.52313142 419.2249161 -163.41950145 418.60127935 -165.3190918 417.98779297 C-174.18596512 415.07280836 -182.67191184 411.67957112 -190.6940918 406.87841797 C-192.66641141 405.84454075 -194.45740595 405.30927756 -196.6315918 404.86279297 C-196.6315918 404.20279297 -196.6315918 403.54279297 -196.6315918 402.86279297 C-197.71827148 402.44126953 -197.71827148 402.44126953 -198.8269043 402.01123047 C-205.70338827 399.19551141 -212.2302323 395.62011267 -218.6315918 391.86279297 C-218.6315918 390.87279297 -218.6315918 389.88279297 -218.6315918 388.86279297 C-219.5390918 388.57404297 -220.4465918 388.28529297 -221.3815918 387.98779297 C-228.09825846 385.66279297 -228.09825846 385.66279297 -230.6315918 381.86279297 C-231.6215918 381.53279297 -232.6115918 381.20279297 -233.6315918 380.86279297 C-235.34517823 379.24440578 -237.0023644 377.56607616 -238.6315918 375.86279297 C-239.85658177 374.60869956 -241.08589084 373.35881307 -242.3190918 372.11279297 C-243.19114258 371.22333984 -243.19114258 371.22333984 -244.08081055 370.31591797 C-245.58673153 368.76637493 -245.58673153 368.76637493 -247.6315918 367.86279297 C-247.6315918 367.20279297 -247.6315918 366.54279297 -247.6315918 365.86279297 C-248.4978418 365.52248047 -248.4978418 365.52248047 -249.3815918 365.17529297 C-252.22898989 363.51431075 -253.75226372 361.54754736 -255.6315918 358.86279297 C-255.6315918 358.20279297 -255.6315918 357.54279297 -255.6315918 356.86279297 C-256.2915918 356.86279297 -256.9515918 356.86279297 -257.6315918 356.86279297 C-259.3581543 354.96435547 -259.3581543 354.96435547 -261.2565918 352.48779297 C-261.88823242 351.67568359 -262.51987305 350.86357422 -263.1706543 350.02685547 C-264.6315918 347.86279297 -264.6315918 347.86279297 -264.6315918 345.86279297 C-265.5287793 345.52248047 -265.5287793 345.52248047 -266.4440918 345.17529297 C-269.22507583 343.50670255 -270.1957834 341.73440977 -271.6315918 338.86279297 C-271.6315918 338.20279297 -271.6315918 337.54279297 -271.6315918 336.86279297 C-272.6215918 336.53279297 -273.6115918 336.20279297 -274.6315918 335.86279297 C-277.09711246 332.4841165 -277.6315918 331.15721095 -277.6315918 326.86279297 C-278.2915918 326.86279297 -278.9515918 326.86279297 -279.6315918 326.86279297 C-295.2031334 298.57900027 -295.2031334 298.57900027 -294.6315918 288.86279297 C-295.2915918 288.86279297 -295.9515918 288.86279297 -296.6315918 288.86279297 C-298.70632234 284.2418022 -300.29526546 279.76265622 -301.6315918 274.86279297 C-301.93838867 274.05326172 -302.24518555 273.24373047 -302.5612793 272.40966797 C-307.21160311 256.99910586 -308.4111683 239.91570454 -308.6315918 223.86279297 C-308.64148132 223.21600586 -308.65137085 222.56921875 -308.66156006 221.90283203 C-308.73111549 217.23718639 -308.77793186 212.57178785 -308.80480957 207.90570068 C-308.81418983 206.31767063 -308.82607381 204.72965301 -308.84069824 203.1416626 C-308.92946099 192.05719343 -308.38938719 181.40771673 -305.5690918 170.61279297 C-304.50802271 166.36851664 -304.01415409 162.21192223 -303.6315918 157.86279297 C-302.9715918 157.86279297 -302.3115918 157.86279297 -301.6315918 157.86279297 C-301.6934668 157.03779297 -301.7553418 156.21279297 -301.8190918 155.36279297 C-301.59174718 151.11902684 -300.24733382 147.72975713 -298.6315918 143.86279297 C-297.90108947 142.02999143 -297.17193675 140.19665143 -296.4440918 138.36279297 C-295.8407893 136.86244519 -295.23693334 135.36231922 -294.6315918 133.86279297 C-293.9715918 133.86279297 -293.3115918 133.86279297 -292.6315918 133.86279297 C-292.57100586 133.24791016 -292.51041992 132.63302734 -292.44799805 131.99951172 C-292.36420898 131.19126953 -292.28041992 130.38302734 -292.1940918 129.55029297 C-292.11288086 128.74978516 -292.03166992 127.94927734 -291.94799805 127.12451172 C-291.6315918 124.86279297 -291.6315918 124.86279297 -290.6315918 121.86279297 C-289.9715918 121.86279297 -289.3115918 121.86279297 -288.6315918 121.86279297 C-288.50526367 121.12544922 -288.37893555 120.38810547 -288.2487793 119.62841797 C-286.48510984 111.72539282 -281.45704842 104.83742463 -277.1315918 98.11279297 C-276.66897949 97.39188477 -276.20636719 96.67097656 -275.72973633 95.92822266 C-272.94259884 91.66020255 -270.08334965 87.62189912 -266.6315918 83.86279297 C-265.9715918 83.86279297 -265.3115918 83.86279297 -264.6315918 83.86279297 C-264.6315918 82.54279297 -264.6315918 81.22279297 -264.6315918 79.86279297 C-263.9715918 79.86279297 -263.3115918 79.86279297 -262.6315918 79.86279297 C-262.4047168 79.30591797 -262.1778418 78.74904297 -261.9440918 78.17529297 C-260.25609144 75.20119709 -258.16482663 73.14270432 -255.6315918 70.86279297 C-254.9715918 70.86279297 -254.3115918 70.86279297 -253.6315918 70.86279297 C-253.55682617 70.30076172 -253.48206055 69.73873047 -253.4050293 69.15966797 C-252.35337552 66.03657494 -250.58780472 64.42137276 -248.2565918 62.11279297 C-247.46510742 61.31357422 -246.67362305 60.51435547 -245.8581543 59.69091797 C-243.6315918 57.86279297 -243.6315918 57.86279297 -240.6315918 57.86279297 C-240.39956055 57.12158203 -240.1675293 56.38037109 -239.9284668 55.61669922 C-238.38808806 52.34571425 -236.74328627 50.98125103 -233.8815918 48.80029297 C-232.54354492 47.77742188 -232.54354492 47.77742188 -231.1784668 46.73388672 C-223.18691539 40.86279297 -223.18691539 40.86279297 -220.6315918 40.86279297 C-220.6315918 40.20279297 -220.6315918 39.54279297 -220.6315918 38.86279297 C-219.1706543 37.57373047 -219.1706543 37.57373047 -217.2565918 36.23779297 C-216.63010742 35.79177734 -216.00362305 35.34576172 -215.3581543 34.88623047 C-213.6315918 33.86279297 -213.6315918 33.86279297 -211.6315918 33.86279297 C-211.6315918 33.20279297 -211.6315918 32.54279297 -211.6315918 31.86279297 C-208.72466506 30.37552812 -205.87572031 28.9550193 -202.8190918 27.80029297 C-200.46643611 27.0707668 -200.46643611 27.0707668 -199.6315918 24.86279297 C-198.6415918 24.86279297 -197.6515918 24.86279297 -196.6315918 24.86279297 C-196.6315918 24.20279297 -196.6315918 23.54279297 -196.6315918 22.86279297 C-194.27935183 21.58828457 -191.92492248 20.31813399 -189.5690918 19.05029297 C-188.91231445 18.69386719 -188.25553711 18.33744141 -187.57885742 17.97021484 C-176.20448457 11.86279297 -176.20448457 11.86279297 -170.6315918 11.86279297 C-170.6315918 11.20279297 -170.6315918 10.54279297 -170.6315918 9.86279297 C-168.5081902 9.02539516 -166.382819 8.19299014 -164.2565918 7.36279297 C-163.07323242 6.89873047 -161.88987305 6.43466797 -160.6706543 5.95654297 C-157.6315918 4.86279297 -157.6315918 4.86279297 -155.6315918 4.86279297 C-155.6315918 4.20279297 -155.6315918 3.54279297 -155.6315918 2.86279297 C-152.96571565 2.25494852 -150.2991524 1.65067641 -147.6315918 1.05029297 C-146.82230225 0.86797119 -146.0130127 0.68564941 -145.17919922 0.49780273 C-138.54333197 -0.97762501 -131.88648002 -2.20778127 -125.18237305 -3.32861328 C-121.58806235 -4.03354293 -121.58806235 -4.03354293 -118.23706055 -5.60205078 C-84.96824731 -19.76742847 -32.51512854 -12.46549612 0 0 Z " fill="#FCCE25" transform="translate(412.631591796875,36.13720703125)"/>
<path d="M0 0 C0.66 0.33 1.32 0.66 2 1 C2 1.66 2 2.32 2 3 C2.59683594 3.26167969 3.19367188 3.52335938 3.80859375 3.79296875 C9.57721481 6.97033757 13.61898656 13.63664624 16.05859375 19.578125 C17.23659512 23.8599889 17.34317566 27.76757556 17.3125 32.1875 C17.30686035 33.03103027 17.3012207 33.87456055 17.29541016 34.74365234 C17.04849212 47.46848773 13.27420007 56.42889041 4.6875 65.8125 C-2.38782825 72.4263938 -9.1532986 73.44427239 -18.66796875 73.43359375 C-24.56287969 72.66649514 -29.27489429 69.48757802 -34 66 C-34 65.34 -34 64.68 -34 64 C-34.59683594 63.76152344 -35.19367188 63.52304688 -35.80859375 63.27734375 C-41.36316056 60.03965507 -44.06603521 52.53199876 -45.875 46.625 C-48.82856223 34.12510272 -47.20865733 21.7903029 -40.5 10.8125 C-37.4606947 6.1535649 -37.4606947 6.1535649 -34 5 C-34 4.34 -34 3.68 -34 3 C-29.61538462 0 -29.61538462 0 -27 0 C-27 -0.66 -27 -1.32 -27 -2 C-17.83524474 -6.07322456 -8.51426836 -4.75348166 0 0 Z " fill="#83201C" transform="translate(280,137)"/>
<path d="M0 0 C1.2065625 0.0309375 1.2065625 0.0309375 2.4375 0.0625 C2.4375 0.7225 2.4375 1.3825 2.4375 2.0625 C3.0975 2.0625 3.7575 2.0625 4.4375 2.0625 C5.65912785 9.05909587 5.16958697 13.5457038 2.4375 20.0625 C2.15003906 20.76246094 1.86257813 21.46242188 1.56640625 22.18359375 C0.87857958 23.81923899 0.16134259 25.44247136 -0.5625 27.0625 C-1.2225 27.0625 -1.8825 27.0625 -2.5625 27.0625 C-2.665625 27.59875 -2.76875 28.135 -2.875 28.6875 C-3.74342697 31.68752044 -5.11870296 34.3004535 -6.5625 37.0625 C-7.2225 37.0625 -7.8825 37.0625 -8.5625 37.0625 C-8.81 37.619375 -9.0575 38.17625 -9.3125 38.75 C-10.79174818 41.48660913 -12.49717439 43.73900869 -14.5625 46.0625 C-15.2225 46.0625 -15.8825 46.0625 -16.5625 46.0625 C-16.8925 47.0525 -17.2225 48.0425 -17.5625 49.0625 C-18.2225 49.0625 -18.8825 49.0625 -19.5625 49.0625 C-19.5625 49.7225 -19.5625 50.3825 -19.5625 51.0625 C-39.98116412 70.351621 -64.40984482 76.58278307 -91.5625 76.0625 C-93.08617187 76.03736328 -93.08617187 76.03736328 -94.640625 76.01171875 C-112.72648263 75.04085216 -131.21669996 66.15630743 -146.5625 57.0625 C-146.5625 56.4025 -146.5625 55.7425 -146.5625 55.0625 C-147.29855469 54.79308594 -148.03460938 54.52367187 -148.79296875 54.24609375 C-159.59287268 49.63062 -166.85841013 39.50190665 -171.5625 29.0625 C-172.05248201 25.00264904 -172.18147059 22.97949346 -169.875 19.5625 C-167.5625 18.0625 -167.5625 18.0625 -165.1953125 18.375 C-156.40005645 20.67168407 -149.24937432 24.95034806 -141.76171875 29.94140625 C-139.76492144 31.26529018 -137.72929134 32.53431695 -135.64453125 33.71484375 C-134.95746094 34.15957031 -134.27039063 34.60429687 -133.5625 35.0625 C-133.5625 35.7225 -133.5625 36.3825 -133.5625 37.0625 C-132.44875 37.495625 -132.44875 37.495625 -131.3125 37.9375 C-128.99510203 38.88552644 -126.78332885 39.91095911 -124.5625 41.0625 C-124.5625 41.7225 -124.5625 42.3825 -124.5625 43.0625 C-123.85351562 43.33449219 -123.14453125 43.60648437 -122.4140625 43.88671875 C-119.50490289 45.08624894 -116.73947675 46.44380163 -113.9375 47.875 C-97.94985373 55.9278908 -83.82852088 61.58084879 -66.015625 55.84765625 C-63.64065169 55.08751352 -61.32291362 54.58710614 -58.875 54.125 C-53.260816 52.91980844 -48.59120598 50.32480594 -43.75 47.3125 C-41.5625 46.0625 -41.5625 46.0625 -38.5625 46.0625 C-38.5625 45.4025 -38.5625 44.7425 -38.5625 44.0625 C-37.5725 44.0625 -36.5825 44.0625 -35.5625 44.0625 C-35.5625 43.4025 -35.5625 42.7425 -35.5625 42.0625 C-34.5725 42.0625 -33.5825 42.0625 -32.5625 42.0625 C-32.5625 41.4025 -32.5625 40.7425 -32.5625 40.0625 C-30.91796875 38.4765625 -30.91796875 38.4765625 -28.75 36.6875 C-26.49999143 34.82683718 -24.65899715 33.19377297 -22.92578125 30.8359375 C-22.25095703 29.95808594 -22.25095703 29.95808594 -21.5625 29.0625 C-20.9025 29.0625 -20.2425 29.0625 -19.5625 29.0625 C-19.19125 28.0725 -19.19125 28.0725 -18.8125 27.0625 C-17.24432955 23.29889093 -15.41744954 19.6913576 -13.5625 16.0625 C-12.9025 16.0625 -12.2425 16.0625 -11.5625 16.0625 C-11.4696875 15.34578125 -11.376875 14.6290625 -11.28125 13.890625 C-10.4404426 10.58223067 -9.07020202 8.56074785 -7.0625 5.8125 C-6.4334375 4.94109375 -5.804375 4.0696875 -5.15625 3.171875 C-2.81153368 0.06857399 -2.81153368 0.06857399 0 0 Z " fill="#84221A" transform="translate(458.5625,302.9375)"/>
<path d="M0 0 C0.721875 0.495 1.44375 0.99 2.1875 1.5 C2.1875 2.16 2.1875 2.82 2.1875 3.5 C2.93 3.685625 3.6725 3.87125 4.4375 4.0625 C8.39300217 6.13014886 9.26200794 8.50638683 11.1875 12.5 C11.1875 13.16 11.1875 13.82 11.1875 14.5 C11.8475 14.5 12.5075 14.5 13.1875 14.5 C17.55066212 26.40130381 19.3608654 37.00578234 14.38671875 48.99609375 C10.30202006 57.52473174 5.2287788 63.69803667 -3.55078125 67.76171875 C-8.98258861 69.53479576 -14.15266677 69.5274866 -19.4921875 67.46484375 C-27.96809372 62.84045114 -33.06117045 56.43038704 -36.25 47.375 C-39.42434439 35.58457799 -38.86923468 23.67723366 -33.8125 12.5 C-31.9927872 9.69151469 -30.28366872 7.81000554 -27.8125 5.5 C-27.1525 5.5 -26.4925 5.5 -25.8125 5.5 C-25.8125 4.84 -25.8125 4.18 -25.8125 3.5 C-25.1525 3.5 -24.4925 3.5 -23.8125 3.5 C-23.8125 2.84 -23.8125 2.18 -23.8125 1.5 C-16.88090506 -2.36879718 -7.32890965 -3.66445483 0 0 Z " fill="#83201C" transform="translate(453.8125,136.5)"/>
<path d="M0 0 C0.66 0 1.32 0 2 0 C2.88677266 10.93686282 -0.03900178 19.35619038 -5 29 C-5.66 29 -6.32 29 -7 29 C-7.20302734 29.80050781 -7.20302734 29.80050781 -7.41015625 30.6171875 C-9.37195103 37.40711196 -12.74651581 42.416208 -17 48 C-17.60585938 48.82242188 -18.21171875 49.64484375 -18.8359375 50.4921875 C-21.91926475 54.59880239 -24.83995988 57.93470728 -29 61 C-29.825 61.86625 -30.65 62.7325 -31.5 63.625 C-33.97353671 65.97485987 -35.78091832 66.98828861 -39 68 C-39 68.66 -39 69.32 -39 70 C-40.21236328 70.59748047 -40.21236328 70.59748047 -41.44921875 71.20703125 C-42.51785156 71.73683594 -43.58648437 72.26664062 -44.6875 72.8125 C-45.74324219 73.33457031 -46.79898438 73.85664063 -47.88671875 74.39453125 C-50.97797095 75.93655405 -50.97797095 75.93655405 -53.71875 77.6875 C-56.36079124 79.20757852 -58.00122137 79.25703817 -61 79 C-61 79.66 -61 80.32 -61 81 C-95.86486486 88.56756757 -95.86486486 88.56756757 -107 83 C-108.83196115 82.77992675 -110.66565013 82.57418446 -112.5 82.375 C-118.42973939 81.49774156 -123.72962843 79.85514479 -129.3125 77.6875 C-130.42238281 77.26186768 -130.42238281 77.26186768 -131.5546875 76.82763672 C-136.09496271 75.00117091 -140.1660671 72.80563705 -144.26245117 70.12890625 C-145.80301155 69.12798575 -147.39877362 68.21318984 -149 67.3125 C-149.66 66.879375 -150.32 66.44625 -151 66 C-151 65.34 -151 64.68 -151 64 C-151.598125 63.731875 -152.19625 63.46375 -152.8125 63.1875 C-154.99847854 62.00082594 -156.41332594 60.90400887 -158 59 C-158 58.34 -158 57.68 -158 57 C-159.32 56.34 -160.64 55.68 -162 55 C-162 54.34 -162 53.68 -162 53 C-162.66 53 -163.32 53 -164 53 C-164.52400391 52.04287109 -164.52400391 52.04287109 -165.05859375 51.06640625 C-165.51363281 50.24011719 -165.96867187 49.41382813 -166.4375 48.5625 C-166.88996094 47.73878906 -167.34242188 46.91507812 -167.80859375 46.06640625 C-168.83662397 44.07691202 -168.83662397 44.07691202 -170 43 C-170.04063832 41.33382885 -170.042721 39.66611905 -170 38 C-168.2925002 39.28062485 -166.62626404 40.61767557 -165 42 C-165 42.66 -165 43.32 -165 44 C-164.42507813 44.26683594 -163.85015625 44.53367187 -163.2578125 44.80859375 C-160.92297449 46.04064495 -158.96105816 47.44838275 -156.875 49.0625 C-154.06372737 51.23226195 -154.06372737 51.23226195 -151 53 C-151 53.66 -151 54.32 -151 55 C-150.29617188 55.27328125 -149.59234375 55.5465625 -148.8671875 55.828125 C-145.9005488 57.04064763 -143.02168101 58.37905174 -140.125 59.75 C-122.29281856 68.00040974 -106.17230172 73.0271645 -86.375 73.125 C-85.19357422 73.13213013 -85.19357422 73.13213013 -83.98828125 73.1394043 C-64.60906053 73.08480925 -43.93716091 65.54162757 -29.4375 52.375 C-28.79683594 51.72273438 -28.15617188 51.07046875 -27.49609375 50.3984375 C-26 49 -26 49 -24 49 C-24 48.34 -24 47.68 -24 47 C-22.625 45.375 -22.625 45.375 -21 44 C-20.34 44 -19.68 44 -19 44 C-18.7525 43.443125 -18.505 42.88625 -18.25 42.3125 C-16.77075182 39.57589087 -15.06532561 37.32349131 -13 35 C-12.34 35 -11.68 35 -11 35 C-10.71125 34.0925 -10.4225 33.185 -10.125 32.25 C-9.23468224 29.67797092 -8.28505587 27.38653234 -7 25 C-6.34 25 -5.68 25 -5 25 C-4.8453125 23.6696875 -4.8453125 23.6696875 -4.6875 22.3125 C-4 19 -4 19 -2.5 16.8125 C0.21773562 11.71674571 0 5.69509813 0 0 Z " fill="#FAB21E" transform="translate(463,305)"/>
<path d="M0 0 C0.91136719 0.00088623 1.82273437 0.00177246 2.76171875 0.00268555 C12.15108547 0.16643424 20.81430625 1.94078475 28.6875 7.375 C28.6875 8.035 28.6875 8.695 28.6875 9.375 C29.43 9.6225 30.1725 9.87 30.9375 10.125 C34.75845648 11.8617984 36.95097563 13.8603103 38.79296875 17.6484375 C39.78187248 20.66265063 39.88868897 23.02565779 39.8125 26.1875 C39.79445313 27.16332031 39.77640625 28.13914062 39.7578125 29.14453125 C39.73460937 29.88058594 39.71140625 30.61664063 39.6875 31.375 C35.47015512 30.75721256 31.5569202 29.80023032 27.5 28.5 C6.71869943 22.00584357 -16.65807816 18.32976829 -37.5078125 26.984375 C-38.40113281 27.17773438 -38.40113281 27.17773438 -39.3125 27.375 C-40.3025 26.715 -41.2925 26.055 -42.3125 25.375 C-40.89109711 17.74154004 -35.27943808 11.71770261 -29.125 7.375 C-19.92322713 1.34675195 -10.89782333 -0.01925769 0 0 Z " fill="#FAE74E" transform="translate(373.3125,50.625)"/>
<path d="M0 0 C0 0.66 0 1.32 0 2 C-4.38461538 5 -4.38461538 5 -7 5 C-7 5.66 -7 6.32 -7 7 C-8.0828125 7.99 -8.0828125 7.99 -9.1875 9 C-16.69167292 16.24834884 -19.00196434 26.83434711 -19.3125 36.875 C-19.04404413 48.64231574 -15.0176037 58.56229944 -6.9296875 67.21484375 C-0.28848428 73.35862892 6.64370798 74.52191493 15.421875 74.375 C24.35405222 73.43887662 30.22323877 68.51526764 36 62 C36.99 61.01 36.99 61.01 38 60 C37.52651586 64.1666604 36.95303159 66.92884715 34 70 C33.34 70 32.68 70 32 70 C31.505 71.485 31.505 71.485 31 73 C21.69473085 79.32693906 12.35069843 82.35290645 1.203125 80.546875 C-1.20877226 80.06994616 -3.60610262 79.55974219 -6 79 C-6 78.34 -6 77.68 -6 77 C-7.65 76.67 -9.3 76.34 -11 76 C-11 75.34 -11 74.68 -11 74 C-12.65 73.34 -14.3 72.68 -16 72 C-16 71.34 -16 70.68 -16 70 C-16.66 70 -17.32 70 -18 70 C-18 69.34 -18 68.68 -18 68 C-18.66 68 -19.32 68 -20 68 C-21.4375 66.171875 -21.4375 66.171875 -23 63.75 C-23.515625 62.96109375 -24.03125 62.1721875 -24.5625 61.359375 C-30.93270446 50.90393072 -30.72402066 38.79527801 -29 27 C-28.03573577 23.71418965 -26.76535931 20.92545258 -25 18 C-24.401875 16.96875 -23.80375 15.9375 -23.1875 14.875 C-17.61563009 7.55197098 -10.02567046 -1.25320881 0 0 Z " fill="#FAB21E" transform="translate(253,135)"/>
<path d="M0 0 C0 0.33 0 0.66 0 1 C-0.74765625 1.13277344 -1.4953125 1.26554688 -2.265625 1.40234375 C-3.25046875 1.57894531 -4.2353125 1.75554687 -5.25 1.9375 C-6.22453125 2.11152344 -7.1990625 2.28554687 -8.203125 2.46484375 C-10.49721795 2.90379729 -12.74291971 3.40348592 -15 4 C-15 4.66 -15 5.32 -15 6 C-15.66 6 -16.32 6 -17 6 C-17 6.66 -17 7.32 -17 8 C-18.62339805 9.70884005 -20.29319053 11.37446717 -22 13 C-27.4477464 18.4477464 -28.30150703 28.14812577 -28.5 35.5 C-28.13980724 46.7705476 -25.34224619 57.05421699 -17 65 C-11.51028643 69.41045041 -6.51899946 70.68263513 0.4765625 70.37890625 C3.71254134 69.8930085 6.19781264 68.65257203 9 67 C9.99 67.495 9.99 67.495 11 68 C8.00216815 72.49674777 4.14760933 72.96342661 -1 74 C-11.21114172 75.07259892 -19.28056674 72.97443545 -27.28515625 66.5390625 C-29.51425233 64.53846146 -31.28265207 62.45335419 -33 60 C-34.0209375 58.700625 -34.0209375 58.700625 -35.0625 57.375 C-39.24749935 50.08500114 -40.61510512 42.31929679 -40 34 C-39.9690625 33.33355469 -39.938125 32.66710937 -39.90625 31.98046875 C-39.33924372 24.7936642 -36.15093587 17.849046 -32 12 C-31.34 12 -30.68 12 -30 12 C-29.34 10.68 -28.68 9.36 -28 8 C-27.34 8 -26.68 8 -26 8 C-26 7.34 -26 6.68 -26 6 C-17.23532515 0.613998 -10.15584514 -0.18390866 0 0 Z " fill="#FAB31D" transform="translate(445,134)"/>
<path d="M0 0 C0.66 0 1.32 0 2 0 C2.88677266 10.93686282 -0.03900178 19.35619038 -5 29 C-5.66 29 -6.32 29 -7 29 C-7.23783203 29.88751953 -7.23783203 29.88751953 -7.48046875 30.79296875 C-9.03702169 36.06460936 -10.5567829 39.46821205 -15 43 C-15.66 43 -16.32 43 -17 43 C-17.226875 43.5775 -17.45375 44.155 -17.6875 44.75 C-19.36684391 47.62887527 -21.22790829 49.17447619 -24 51 C-24.99 50.67 -25.98 50.34 -27 50 C-25.515 49.505 -25.515 49.505 -24 49 C-24 48.34 -24 47.68 -24 47 C-22.625 45.375 -22.625 45.375 -21 44 C-20.34 44 -19.68 44 -19 44 C-18.7525 43.443125 -18.505 42.88625 -18.25 42.3125 C-16.77075182 39.57589087 -15.06532561 37.32349131 -13 35 C-12.34 35 -11.68 35 -11 35 C-10.566875 33.63875 -10.566875 33.63875 -10.125 32.25 C-9.23468224 29.67797092 -8.28505587 27.38653234 -7 25 C-6.34 25 -5.68 25 -5 25 C-4.896875 24.113125 -4.79375 23.22625 -4.6875 22.3125 C-4 19 -4 19 -2.5 16.8125 C0.21773562 11.71674571 0 5.69509813 0 0 Z " fill="#F1A42D" transform="translate(463,305)"/>
<path d="M0 0 C2.46542986 2.46542986 2.2600215 3.89290254 2.2734375 7.26367188 C2.26570313 7.93978516 2.25796875 8.61589844 2.25 9.3125 C2.25515625 10.62863281 2.2603125 11.94476563 2.265625 13.30078125 C2.01706944 16.76228301 1.43549195 18.8959473 0 22 C-0.39972283 23.43642332 -0.79563622 24.87391283 -1.1875 26.3125 C-2.89097513 31.60037073 -6.13559398 35.11441915 -10 39 C-10.66 38.67 -11.32 38.34 -12 38 C-11.2575 37.175 -10.515 36.35 -9.75 35.5 C-3.36778638 27.81603176 -0.689158 19.15098107 -0.9375 9.1875 C-1.09631728 2.19263456 -1.09631728 2.19263456 0 0 Z " fill="#EFB83E" transform="translate(471,160)"/>
<path d="M0 0 C0.66 0 1.32 0 2 0 C2.88677266 10.93686282 -0.03900178 19.35619038 -5 29 C-5.66 29 -6.32 29 -7 29 C-7.33 30.32 -7.66 31.64 -8 33 C-8.66 33 -9.32 33 -10 33 C-9.690625 32.236875 -9.38125 31.47375 -9.0625 30.6875 C-8.32106407 28.81210323 -7.63771783 26.91315348 -7 25 C-6.34 25 -5.68 25 -5 25 C-4.8453125 23.6696875 -4.8453125 23.6696875 -4.6875 22.3125 C-4 19 -4 19 -2.5 16.8125 C0.21773562 11.71674571 0 5.69509813 0 0 Z " fill="#F0B338" transform="translate(463,305)"/>
<path d="M0 0 C0.66 0.33 1.32 0.66 2 1 C1.83757812 1.67289063 1.67515625 2.34578125 1.5078125 3.0390625 C0.90934637 6.52858037 0.86781908 9.83480675 0.875 13.375 C0.87242187 14.64085937 0.86984375 15.90671875 0.8671875 17.2109375 C0.99683302 20.90964792 1.40652688 24.35437943 2 28 C1.34 28.33 0.68 28.66 0 29 C-1.80141554 23.59575338 -2.21900115 18.49045615 -2.25 12.8125 C-2.25902344 12.12349609 -2.26804687 11.43449219 -2.27734375 10.72460938 C-2.25402715 6.71026887 -1.76771727 3.61259681 0 0 Z " fill="#EE9E2F" transform="translate(416,156)"/>
<path d="M0 0 C0.33 0 0.66 0 1 0 C1.03738281 0.61746094 1.07476562 1.23492187 1.11328125 1.87109375 C1.79877766 10.70190047 4.38575322 17.98363767 8.1328125 25.95703125 C9 28 9 28 9.4921875 30.19921875 C9.65976563 30.79347656 9.82734375 31.38773438 10 32 C10.66 32.33 11.32 32.66 12 33 C11.01 33 10.02 33 9 33 C1.01852923 23.41807807 -0.56721773 12.03762074 0 0 Z " fill="#8E310B" transform="translate(233,166)"/>
<path d="M0 0 C1.47330574 0.005035 2.94661318 0.0095943 4.41992188 0.01367188 C7.9674844 0.02449623 11.51498052 0.04164545 15.0625 0.0625 C15.0625 0.3925 15.0625 0.7225 15.0625 1.0625 C14.15894775 1.08755615 13.25539551 1.1126123 12.32446289 1.13842773 C8.9828572 1.23337317 5.64143748 1.33261621 2.30004883 1.43481445 C0.8518576 1.4782163 -0.59638654 1.51988744 -2.04467773 1.55981445 C-4.12239559 1.61739062 -6.19984573 1.68112028 -8.27734375 1.74609375 C-9.52894287 1.78275146 -10.78054199 1.81940918 -12.07006836 1.85717773 C-14.83380504 1.74053906 -14.83380504 1.74053906 -15.9375 3.0625 C-18.63858504 2.971584 -21.30680311 2.82509234 -24 2.625 C-25.13791992 2.54668945 -25.13791992 2.54668945 -26.29882812 2.46679688 C-28.17871722 2.33674165 -30.05815685 2.20021962 -31.9375 2.0625 C-31.9375 1.7325 -31.9375 1.4025 -31.9375 1.0625 C-21.26728048 0.20217051 -10.69998343 -0.06487806 0 0 Z " fill="#B19126" transform="translate(347.9375,24.9375)"/>
<path d="M0 0 C0.33 0 0.66 0 1 0 C1.75 3.1875 1.75 3.1875 2 7 C0.1875 9.5 0.1875 9.5 -2 12 C-3.66598741 16.93693706 -4.50903425 21.79267128 -5.125 26.9375 C-5.21136719 27.62134766 -5.29773438 28.30519531 -5.38671875 29.00976562 C-5.59602285 30.67257046 -5.79871722 32.33620513 -6 34 C-6.66 34 -7.32 34 -8 34 C-7.34 28.39 -6.68 22.78 -6 17 C-5.34 17 -4.68 17 -4 17 C-4.061875 16.175 -4.12375 15.35 -4.1875 14.5 C-3.95722354 10.2015061 -2.61995015 6.93656279 -1 3 C-0.67 2.01 -0.34 1.02 0 0 Z " fill="#AE8A1F" transform="translate(115,177)"/>
<path d="M0 0 C-10.45426624 3.72101002 -22.46484099 5.09972854 -33 1 C-33 0.67 -33 0.34 -33 0 C-31.79601562 0.08378906 -30.59203125 0.16757812 -29.3515625 0.25390625 C-27.77606084 0.3570641 -26.20053891 0.45991266 -24.625 0.5625 C-23.8309375 0.61857422 -23.036875 0.67464844 -22.21875 0.73242188 C-17.98409115 1.15352804 -17.98409115 1.15352804 -14 0 C-12.38147425 -0.25377581 -10.75453544 -0.45576041 -9.125 -0.625 C-8.26132812 -0.72039062 -7.39765625 -0.81578125 -6.5078125 -0.9140625 C-4.09358507 -0.99679303 -2.29257465 -0.71443024 0 0 Z " fill="#F2BD43" transform="translate(395,359)"/>
<path d="M0 0 C0.33 0 0.66 0 1 0 C1.13277344 0.69867188 1.26554687 1.39734375 1.40234375 2.1171875 C1.57894531 3.02726562 1.75554687 3.93734375 1.9375 4.875 C2.11152344 5.77992188 2.28554687 6.68484375 2.46484375 7.6171875 C2.89963701 9.99956317 2.89963701 9.99956317 4 12 C4.93934532 17.63607194 5.46224476 23.31352438 6 29 C4 28 4 28 2.9453125 25.3671875 C0.6373886 17.1464007 -0.34107324 8.52683096 0 0 Z " fill="#B18C21" transform="translate(107,283)"/>
<path d="M0 0 C2.69510494 2.69510494 2.33022855 4.17222105 2.375 7.9375 C2.30077463 14.60293806 0.71218932 19.95811396 -2 26 C-2.96106169 22.96115 -2.9806402 21.11584621 -2.125 18.0625 C-0.65239441 12.1123774 -0.35839044 6.10206881 0 0 Z " fill="#832E09" transform="translate(469,162)"/>
<path d="M0 0 C9.95662322 -0.67886067 18.52181404 1.30569333 28 4 C23.9905937 5.33646877 20.47971343 4.646556 16.375 4.125 C15.58609375 4.03347656 14.7971875 3.94195312 13.984375 3.84765625 C8.13394386 3.13394386 8.13394386 3.13394386 7 2 C4.67182036 1.63239269 2.3381615 1.29758419 0 1 C0 0.67 0 0.34 0 0 Z " fill="#A98521" transform="translate(282,464)"/>
<path d="M0 0 C0.75 1.625 0.75 1.625 1 4 C-0.77113252 7.40602407 -2.02582125 9.51291063 -5.5 11.25 C-6.325 11.4975 -7.15 11.745 -8 12 C-8.680625 12.391875 -9.36125 12.78375 -10.0625 13.1875 C-12.47542156 14.19937033 -13.54781638 13.71883137 -16 13 C-14.824375 12.484375 -13.64875 11.96875 -12.4375 11.4375 C-7.37848952 8.92599836 -2.56828685 5.1365737 0 0 Z " fill="#EBA02E" transform="translate(290,195)"/>
<path d="M0 0 C3.3 0 6.6 0 10 0 C10.33 0.66 10.66 1.32 11 2 C12.75047087 2.79714142 12.75047087 2.79714142 14.8125 3.4375 C17.99078239 4.55589021 20.43403178 5.75477781 23 8 C22.01 8.495 22.01 8.495 21 9 C19.30078125 8.328125 19.30078125 8.328125 17.3125 7.25 C16.59835937 6.88003906 15.88421875 6.51007813 15.1484375 6.12890625 C14.43945312 5.75636719 13.73046875 5.38382812 13 5 C7.75640891 2.33220804 4.7792619 1.70261468 -1 3 C-0.67 2.01 -0.34 1.02 0 0 Z " fill="#EBB43A" transform="translate(289,320)"/>
<path d="M0 0 C0 0.33 0 0.66 0 1 C-0.74765625 1.13277344 -1.4953125 1.26554688 -2.265625 1.40234375 C-3.74289062 1.66724609 -3.74289062 1.66724609 -5.25 1.9375 C-6.22453125 2.11152344 -7.1990625 2.28554687 -8.203125 2.46484375 C-10.49721795 2.90379729 -12.74291971 3.40348592 -15 4 C-15 4.66 -15 5.32 -15 6 C-15.66 6 -16.32 6 -17 6 C-17 6.66 -17 7.32 -17 8 C-18.98 8.99 -18.98 8.99 -21 10 C-20.77734375 7.67578125 -20.77734375 7.67578125 -20 5 C-14.05663895 0.13725005 -7.41432471 -0.70988215 0 0 Z " fill="#F2A832" transform="translate(445,134)"/>
<path d="M0 0 C1.2065625 0.0309375 1.2065625 0.0309375 2.4375 0.0625 C2.4375 0.7225 2.4375 1.3825 2.4375 2.0625 C3.0975 2.0625 3.7575 2.0625 4.4375 2.0625 C4.1075 3.3825 3.7775 4.7025 3.4375 6.0625 C3.4375 5.0725 3.4375 4.0825 3.4375 3.0625 C0.7975 3.3925 -1.8425 3.7225 -4.5625 4.0625 C-4.68625 4.619375 -4.81 5.17625 -4.9375 5.75 C-5.62226855 8.28364364 -6.55383763 10.64171032 -7.5625 13.0625 C-8.5525 12.4025 -9.5425 11.7425 -10.5625 11.0625 C-9.41789001 9.41581565 -8.27177742 7.77017566 -7.125 6.125 C-6.48691406 5.20847656 -5.84882813 4.29195313 -5.19140625 3.34765625 C-2.85476069 0.06962831 -2.85476069 0.06962831 0 0 Z " fill="#8C3A11" transform="translate(458.5625,302.9375)"/>
<path d="M0 0 C0.928125 0.495 1.85625 0.99 2.8125 1.5 C7.75367181 3.60903675 12.71667474 3.6285884 18 3 C21.43595207 1.5774139 21.43595207 1.5774139 24 0 C24.66 0.33 25.32 0.66 26 1 C24 4 24 4 21 5 C18.56551182 5.14703064 16.1262523 5.22105339 13.6875 5.25 C12.39199219 5.27578125 11.09648437 5.3015625 9.76171875 5.328125 C5.80416025 4.9829174 3.39545931 4.00042564 0 2 C0 1.34 0 0.68 0 0 Z " fill="#F7A938" transform="translate(430,201)"/>
<path d="M0 0 C3.46792464 5.20188696 2.68135566 12.37589274 1.546875 18.41015625 C1.10081349 19.96181307 0.56303053 21.48685546 0 23 C-2.19026181 19.52134888 -1.82779437 17.92113121 -1 14 C-0.78301513 11.56494763 -0.59709255 9.12698616 -0.4375 6.6875 C-0.35371094 5.43324219 -0.26992188 4.17898437 -0.18359375 2.88671875 C-0.12300781 1.93410156 -0.06242187 0.98148438 0 0 Z " fill="#DEA332" transform="translate(297,165)"/>
<path d="M0 0 C0.66 0 1.32 0 2 0 C1.835 0.7425 1.67 1.485 1.5 2.25 C0.57866741 9.15999445 0.42405944 16.18343172 2 23 C1.34 23.33 0.68 23.66 0 24 C-1.18807993 21.62384014 -1.12914522 20.1488258 -1.1328125 17.5 C-1.13410156 16.613125 -1.13539063 15.72625 -1.13671875 14.8125 C-1.13285156 13.884375 -1.12898437 12.95625 -1.125 12 C-1.12886719 11.071875 -1.13273438 10.14375 -1.13671875 9.1875 C-1.13542969 8.300625 -1.13414062 7.41375 -1.1328125 6.5 C-1.13168457 5.6853125 -1.13055664 4.870625 -1.12939453 4.03125 C-1 2 -1 2 0 0 Z " fill="#F2A32F" transform="translate(233,160)"/>
<path d="M0 0 C0.66 0.33 1.32 0.66 2 1 C-1.3 4.3 -4.6 7.6 -8 11 C-8.99 10.67 -9.98 10.34 -11 10 C-7.84778899 5.58690458 -4.44536093 2.99206986 0 0 Z " fill="#FBDF3F" transform="translate(347,56)"/>
<path d="M0 0 C2 2 2 2 2.1953125 5.4765625 C2.18201493 6.85950968 2.15816232 8.24238654 2.125 9.625 C2.11597656 10.33140625 2.10695313 11.0378125 2.09765625 11.765625 C2.07407603 13.51056098 2.03820461 15.25532295 2 17 C1.34 16.67 0.68 16.34 0 16 C-0.44921875 12.91015625 -0.44921875 12.91015625 -0.6875 9.0625 C-0.77386719 7.79535156 -0.86023438 6.52820313 -0.94921875 5.22265625 C-1 2 -1 2 0 0 Z " fill="#FBC83D" transform="translate(471,160)"/>
<path d="M0 0 C0.99 0 1.98 0 3 0 C3.33 1.98 3.66 3.96 4 6 C4.99 6 5.98 6 7 6 C7.69710731 7.28650706 8.38242876 8.57940665 9.0625 9.875 C9.44535156 10.59429687 9.82820312 11.31359375 10.22265625 12.0546875 C10.60744141 13.01761719 10.60744141 13.01761719 11 14 C10.67 14.66 10.34 15.32 10 16 C6 10.25 6 10.25 6 8 C5.01 7.67 4.02 7.34 3 7 C0 2.66666667 0 2.66666667 0 0 Z " fill="#BF951F" transform="translate(135,365)"/>
<path d="M0 0 C-7.24096313 4.63421641 -13.55666209 4.42691034 -22 4 C-22 3.67 -22 3.34 -22 3 C-18.04 3 -14.08 3 -10 3 C-10 2.34 -10 1.68 -10 1 C-8.71073008 0.63720544 -7.41846728 0.28503302 -6.125 -0.0625 C-5.04605469 -0.35833984 -5.04605469 -0.35833984 -3.9453125 -0.66015625 C-2 -1 -2 -1 0 0 Z " fill="#9C4010" transform="translate(280,206)"/>
<path d="M0 0 C0 0.66 0 1.32 0 2 C-4.38461538 5 -4.38461538 5 -7 5 C-7.33 5.66 -7.66 6.32 -8 7 C-8.6875 5.1875 -8.6875 5.1875 -9 3 C-6.75886401 -0.69128281 -4.00118708 -0.26674581 0 0 Z " fill="#F0A728" transform="translate(253,135)"/>
<path d="M0 0 C5.28 1.98 10.56 3.96 16 6 C16 6.33 16 6.66 16 7 C10.42048754 6.64043142 5.80872819 6.12567332 1 3 C0.67 2.01 0.34 1.02 0 0 Z " fill="#903F12" transform="translate(350,354)"/>
<path d="M0 0 C8.50746269 0.85074627 8.50746269 0.85074627 12 3 C12.66 3.33 13.32 3.66 14 4 C14 4.66 14 5.32 14 6 C8.8896856 4.8545847 4.62765919 3.54521255 0 1 C0 0.67 0 0.34 0 0 Z " fill="#CD9F1D" transform="translate(225,444)"/>
<path d="M0 0 C3.7102381 3.45435961 6.83840258 6.57603873 7.1875 11.8125 C7.125625 12.534375 7.06375 13.25625 7 14 C3.76140913 12.38070456 3.32339087 9.25333589 2 6 C1.608125 5.236875 1.21625 4.47375 0.8125 3.6875 C0 2 0 2 0 0 Z " fill="#8C360E" transform="translate(288,145)"/>
<path d="M0 0 C0 1.32 0 2.64 0 4 C-3.63 4 -7.26 4 -11 4 C-11 3.34 -11 2.68 -11 2 C-9.5422647 1.664061 -8.08378894 1.33133376 -6.625 1 C-5.40683594 0.7215625 -5.40683594 0.7215625 -4.1640625 0.4375 C-2 0 -2 0 0 0 Z " fill="#8B3711" transform="translate(395,359)"/>
<path d="M0 0 C1 2 1 2 0.375 5 C-1 8 -1 8 -3.625 9.375 C-4.40875 9.58125 -5.1925 9.7875 -6 10 C-6.33 9.34 -6.66 8.68 -7 8 C-6.34 8 -5.68 8 -5 8 C-4.731875 7.4225 -4.46375 6.845 -4.1875 6.25 C-2.98280141 3.9674132 -1.59201885 2.0262058 0 0 Z " fill="#BB9320" transform="translate(155,108)"/>
<path d="M0 0 C0.99 0.495 0.99 0.495 2 1 C2 1.66 2 2.32 2 3 C2.556875 3.226875 3.11375 3.45375 3.6875 3.6875 C6.63246684 5.35896766 8.68156544 7.55276352 11 10 C7.47975677 9.3481031 4.85251303 8.17691784 2 6 C0.6875 2.8125 0.6875 2.8125 0 0 Z " fill="#EB9C2E" transform="translate(296,346)"/>
<path d="M0 0 C0.33 0 0.66 0 1 0 C1.3125 3.25 1.3125 3.25 1 7 C-1.5 9.4375 -1.5 9.4375 -4 11 C-3.34 8.36 -2.68 5.72 -2 3 C-1.34 3 -0.68 3 0 3 C0 2.01 0 1.02 0 0 Z " fill="#C3981C" transform="translate(124,155)"/>
<path d="M0 0 C0.6875 1.75 0.6875 1.75 1 4 C-0.4375 6.25 -0.4375 6.25 -2 8 C-1.01 8.33 -0.02 8.66 1 9 C0.01 9.495 0.01 9.495 -1 10 C-1.99 9.34 -2.98 8.68 -4 8 C-3.40072174 4.64404172 -2.15377564 2.62198774 0 0 Z " fill="#FCDF3C" transform="translate(335,68)"/>
<path d="M0 0 C0.33 0.99 0.66 1.98 1 3 C-0.98 4.98 -2.96 6.96 -5 9 C-5.99 8.67 -6.98 8.34 -8 8 C-6.37660195 6.29115995 -4.70680947 4.62553283 -3 3 C-2.34 3 -1.68 3 -1 3 C-0.67 2.01 -0.34 1.02 0 0 Z " fill="#4F4722" transform="translate(519,401)"/>
<path d="M0 0 C0.99 0 1.98 0 3 0 C1.55049545 3.7910119 -0.15172566 7.3874638 -2 11 C-2.66 11 -3.32 11 -4 11 C-3.42415568 8.61435923 -2.77772405 6.33317216 -2 4 C-1.34 4 -0.68 4 0 4 C0 2.68 0 1.36 0 0 Z " fill="#F2BF3E" transform="translate(449,308)"/>
<path d="M0 0 C0.33 0 0.66 0 1 0 C1.2493357 1.60115576 1.47378648 3.20620159 1.6875 4.8125 C1.87892578 6.15248047 1.87892578 6.15248047 2.07421875 7.51953125 C2 10 2 10 0.51953125 11.82421875 C-0.23263672 12.40623047 -0.23263672 12.40623047 -1 13 C-1.02708567 11.39592672 -1.04643483 9.7917215 -1.0625 8.1875 C-1.07410156 7.29417969 -1.08570312 6.40085938 -1.09765625 5.48046875 C-1 3 -1 3 0 0 Z " fill="#B59024" transform="translate(106,211)"/>
<path d="M0 0 C0.33 0 0.66 0 1 0 C1.2295711 3.36704285 1.33943529 5.41370268 -0.375 8.375 C-0.91125 8.91125 -1.4475 9.4475 -2 10 C-2.66 10 -3.32 10 -4 10 C-3.52449439 8.51965236 -3.04448784 7.04074979 -2.5625 5.5625 C-2.29566406 4.73878906 -2.02882813 3.91507813 -1.75390625 3.06640625 C-1 1 -1 1 0 0 Z " fill="#BE9520" transform="translate(129,145)"/>
<path d="M0 0 C3.95820859 0.56545837 6.6659053 1.80902348 10 4 C9.67 4.99 9.34 5.98 9 7 C7.68 6.34 6.36 5.68 5 5 C5 4.34 5 3.68 5 3 C2.525 2.01 2.525 2.01 0 1 C0 0.67 0 0.34 0 0 Z " fill="#EEB63A" transform="translate(277,135)"/>
<path d="M0 0 C-0.33 0.99 -0.66 1.98 -1 3 C-1.66 3 -2.32 3 -3 3 C-3.66 4.32 -4.32 5.64 -5 7 C-5.99 7 -6.98 7 -8 7 C-6.76759083 3.3027725 -4.20634615 0 0 0 Z " fill="#C69C1F" transform="translate(181,85)"/>
<path d="M0 0 C0.66 0.33 1.32 0.66 2 1 C0.58480285 3.0343459 -0.54982123 3.90410393 -2.98046875 4.421875 C-4.98176954 4.66273952 -6.9909944 4.83532741 -9 5 C-6.32239719 2.32239719 -3.52050129 1.32018799 0 0 Z " fill="#E5952D" transform="translate(413,370)"/>
<path d="M0 0 C0.33 0.99 0.66 1.98 1 3 C-1.17424117 5.50037734 -2.73045798 6.43628586 -6 7 C-4.60667426 3.63279613 -3.0210714 2.0140476 0 0 Z " fill="#ED9E2B" transform="translate(435,356)"/>
<path d="M0 0 C0.66 0.33 1.32 0.66 2 1 C-0.25 3.5 -0.25 3.5 -3 6 C-4.32 6 -5.64 6 -7 6 C-7 5.34 -7 4.68 -7 4 C-6.030625 3.525625 -5.06125 3.05125 -4.0625 2.5625 C-1.19522563 1.29806053 -1.19522563 1.29806053 0 0 Z " fill="#BC931D" transform="translate(208,64)"/>
<path d="M0 0 C0.33 1.32 0.66 2.64 1 4 C-1.375 5.5625 -1.375 5.5625 -4 7 C-4.66 6.67 -5.32 6.34 -6 6 C-4.02 4.02 -2.04 2.04 0 0 Z " fill="#873111" transform="translate(436,334)"/>
<path d="M0 0 C0.33 0 0.66 0 1 0 C1.75 3.25 1.75 3.25 2 7 C0.0625 9.4375 0.0625 9.4375 -2 11 C-1.125 3.375 -1.125 3.375 0 0 Z " fill="#D6A51D" transform="translate(115,177)"/>
<path d="M0 0 C0.66 1.32 1.32 2.64 2 4 C1.01 4.99 0.02 5.98 -1 7 C-1.99 6.67 -2.98 6.34 -4 6 C-2.68 4.02 -1.36 2.04 0 0 Z " fill="#CB9D1C" transform="translate(138,131)"/>
<path d="M0 0 C-1 2 -1 2 -3.375 3.1875 C-6 4 -6 4 -9 3 C-5.92807025 0.26939578 -4.09590633 -0.34132553 0 0 Z " fill="#E1A838" transform="translate(408,354)"/>
<path d="M0 0 C-2.8125 2.0625 -2.8125 2.0625 -6 4 C-6.99 3.67 -7.98 3.34 -9 3 C-7 0 -7 0 -4.5 -0.75 C-2 -1 -2 -1 0 0 Z " fill="#F2C042" transform="translate(417,350)"/>
<path d="M0 0 C6.75 0.875 6.75 0.875 9 2 C8.67 2.66 8.34 3.32 8 4 C5.36 3.67 2.72 3.34 0 3 C0 2.01 0 1.02 0 0 Z " fill="#7F230E" transform="translate(292,322)"/>
<path d="M0 0 C0.66 0.33 1.32 0.66 2 1 C1.01 2.485 1.01 2.485 0 4 C-3.625 4.6875 -3.625 4.6875 -7 5 C-4.88437775 2.67281553 -2.94982021 1.14186589 0 0 Z " fill="#EBA532" transform="translate(454,201)"/>
<path d="M0 0 C1.9375 0.625 1.9375 0.625 4 2 C4.75 5.125 4.75 5.125 5 8 C4.67 7.34 4.34 6.68 4 6 C3.34 6 2.68 6 2 6 C1.34 4.02 0.68 2.04 0 0 Z " fill="#E5AF38" transform="translate(463,145)"/>
<path d="M0 0 C2.475 0.99 2.475 0.99 5 2 C5 2.66 5 3.32 5 4 C5.66 4.33 6.32 4.66 7 5 C5.35 5 3.7 5 2 5 C1.34 3.35 0.68 1.7 0 0 Z " fill="#EDA02B" transform="translate(307,356)"/>
<path d="M0 0 C0.66 0.33 1.32 0.66 2 1 C0.515 4.465 0.515 4.465 -1 8 C-1.33 8 -1.66 8 -2 8 C-2 6.02 -2 4.04 -2 2 C-1.34 2 -0.68 2 0 2 C0 1.34 0 0.68 0 0 Z " fill="#F7B429" transform="translate(452,338)"/>
<path d="M0 0 C-1 3 -1 3 -3.4375 4.75 C-4.7059375 5.36875 -4.7059375 5.36875 -6 6 C-6.66 5.67 -7.32 5.34 -8 5 C-6.45487538 1.90975077 -3.48715062 0 0 0 Z " fill="#F8B81C" transform="translate(285,205)"/>
<path d="M0 0 C0.99 0.495 0.99 0.495 2 1 C3.1577506 4.47325181 3.06866652 7.36067448 3 11 C2.67 11 2.34 11 2 11 C0.57741188 7.17679443 -0.24042276 4.08718695 0 0 Z " fill="#F5BE3E" transform="translate(295,154)"/>
<path d="M0 0 C0.66 0.33 1.32 0.66 2 1 C0.515 3.475 0.515 3.475 -1 6 C-1.99 5.67 -2.98 5.34 -4 5 C-2.68 3.35 -1.36 1.7 0 0 Z " fill="#8C2F0D" transform="translate(426,142)"/>
</svg>
